<svg id="background" xmlns="http://www.w3.org/2000/svg" xmlns:xlink="http://www.w3.org/1999/xlink" width="128" height="128" viewBox="0 0 128 128"><defs><style>.cls-1{fill:#daa3ff;}.cls-2{fill:url(#gradient2);}.cls-3{fill:url(#gradient2-2);}.cls-4{fill:#b2af47;}.cls-5{fill:url(#gradient2-3);}.cls-6{fill:url(#gradient3);}.cls-7{fill:url(#gradient1);}.cls-8{fill:#847d29;}.cls-9{fill:url(#gradient1-2);}.cls-10{fill:#ffe98f;}.cls-11{fill:#4c4500;}</style><linearGradient id="gradient2" x1="81" y1="95.43" x2="91.53" y2="57.6" gradientUnits="userSpaceOnUse"><stop offset="0" stop-color="#807a26"/><stop offset="1" stop-color="#b2af47"/></linearGradient><linearGradient id="gradient2-2" x1="43.83" y1="95" x2="39.14" y2="78.36" xlink:href="#gradient2"/><linearGradient id="gradient2-3" x1="41.77" y1="43.68" x2="66.91" y2="43.68" xlink:href="#gradient2"/><linearGradient id="gradient3" x1="46.78" y1="121.12" x2="64.78" y2="44.5" gradientUnits="userSpaceOnUse"><stop offset="0" stop-color="#d1b900"/><stop offset="1" stop-color="#dddd0b"/></linearGradient><linearGradient id="gradient1" x1="80.27" y1="108.93" x2="73.5" y2="31.38" gradientUnits="userSpaceOnUse"><stop offset="0" stop-color="#a09a30"/><stop offset="1" stop-color="#b2af47"/></linearGradient><linearGradient id="gradient1-2" x1="49.47" y1="15.35" x2="39.44" y2="-3.85" xlink:href="#gradient1"/></defs><title>Icon-Flexbox-Grid</title><rect class="cls-1" width="128" height="128"/><path class="cls-2" d="M110.6,91.9s-14.3-7-46.8-6.2c-23.1.6,0.6,23,.6,23S108.3,104.7,110.6,91.9Z"/><path class="cls-3" d="M57.9,101.6l-33.6-.8c-2.7-1.5,1-7.7,1-7.7,3.7-3.2,21-5.5,21-5.5,3.6-1.3,16.8-1.4,16.8-1.4Z"/><path class="cls-4" d="M19.9,95.6c-1.8,1.4-4,3.3-4.7,5.9a10.4,10.4,0,0,0,.5,7.2c1.4,3.1,5.3,5,9,5.9s16,0.9,21.9.6l15.1-.9L57.5,95.9s-7.5.8-11.2,1a72.8,72.8,0,0,1-9.5.1,24.6,24.6,0,0,1-7.4-1.4c-1.9-.7-3-2.7-4.1-2.6S20.8,94.9,19.9,95.6Z"/><path class="cls-5" d="M56,21.6l-7.5-1s1.5,1,2.1,4-0.1,8.1-.1,10.6a62,62,0,0,0,2,16.6c1.4,5.1,1.6,12.5,1.8,14.8s5-23.2,5-23.2Z"/><path class="cls-6" d="M52.4,69.7c-1,3.5-3.2,9.2-4.6,14.6s-2.3,9.6-2,14.2,0.9,8.8,3.1,12.5a18.2,18.2,0,0,0,7.7,7.4,74.2,74.2,0,0,0,7.9,3.1c0.4,0.1.9-2.9,0.9-2.9s-13.2-12-1.3-31.7,9.5-43.9,10.3-45.6-6.9-18-8.3-19.2S49.4,16.7,53,21.2s3.4,19.5,3.1,26.2A108.5,108.5,0,0,1,52.4,69.7Z"/><path class="cls-7" d="M71.8,74.2c1-1.9,6.6-10,8.8-14.6s3.1-14,2.8-17.4a33.3,33.3,0,0,0-4.2-12.7c-2.5-3.9-5.9-6.3-10.4-9.4S62,12.3,57.5,9.6A15.7,15.7,0,0,0,51,7.5l-7.5-.4C41.4,7,39.6,8.3,38.3,9a11.5,11.5,0,0,0-3.2,2.9c-0.6.8-2.2,2.7-2.2,4s2,2.6,2.6,3.1a7.8,7.8,0,0,0,4,1.5,27.7,27.7,0,0,1,7.7,1.5c0.7,0.2,1.9,1.1,2.9,1.4a13.2,13.2,0,0,0,4.8-.2,9.1,9.1,0,0,1,6.3.6c2.5,1.3,7.6,5.1,9.3,9.1a40.3,40.3,0,0,1,2.6,12.8,73.9,73.9,0,0,1-1.7,17.9c-1.3,5.2-4.8,11.7-5.9,14.4s-6.6,13-7.3,14.8-2.7,8.2-1.6,13.3a33.7,33.7,0,0,0,3.6,10.3c0.9,1.6,3,4.7,4.2,5a74.7,74.7,0,0,0,9.9.8,125.9,125.9,0,0,0,15.4-.3,58.1,58.1,0,0,0,11.9-2.2,43.7,43.7,0,0,0,11.2-5.3c2-1.5,5.5-5.2,6.1-7.3s-0.7-4.5-1.5-5.8-6.2-9.5-7.7-9.6-3.8,1.2-5.7,2.9-3.4,3.5-14,7c-14.4,4.9-22.2,3.2-25.1-3.7a11.2,11.2,0,0,1-.8-6C64.8,87.5,67.9,81.5,71.8,74.2Z"/><path class="cls-8" d="M53.6,23.1c3.4,0,4.6-.8,7.7.8-3.6-1-7.4,1-10.9-.4"/><path class="cls-4" d="M57.2,31.2c1.7,4.1,6.7,3.5,11.9.7C64.3,35.2,57.1,37.2,57.2,31.2Z"/><path class="cls-4" d="M56.8,27.4c1.8,0.3,2.7,4.1,8.7-.2C57.8,32.9,58.9,28.8,56.8,27.4Z"/><path class="cls-4" d="M57.5,35.5c1.3,4.8,8,3.6,13.1,1.4C65.4,39.9,56.5,42.4,57.5,35.5Z"/><path class="cls-4" d="M57.7,40.5c0.8,5.4,8.2,3.9,13.6,2.3C65.8,45,56.2,47.5,57.7,40.5Z"/><path class="cls-4" d="M57.5,46.7c1.1,5.6,8.9,3.2,14.6,2.4C66,51.7,55.7,54.3,57.5,46.7Z"/><path class="cls-4" d="M57,53.7c0.2,6.5,8.7,4.8,14.5,4.2C66.2,59.6,53.2,61.7,57,53.7Z"/><path class="cls-9" d="M32.9,15.9c-0.5-.9,1.6-3.2,2.2-4A11.5,11.5,0,0,1,38.3,9c1.3-.7,3.1-2,5.2-1.9L51,7.5a15.7,15.7,0,0,1,6.5,2.1C62,12.3,63.1,16.1,68.8,20c0,0-3.3-2-11.9-1.7-2.5.1-9.1,1.3-12.9,1.1C36.9,19.2,33.6,17.2,32.9,15.9Z"/><ellipse class="cls-10" cx="47.2" cy="11.9" rx="2.9" ry="2.1" transform="translate(-0.3 1.3) rotate(-1.6)"/><ellipse class="cls-11" cx="46.8" cy="12.1" rx="2.3" ry="1.8" transform="translate(-0.3 1.3) rotate(-1.6)"/></svg>